<mxfile host="app.diagrams.net" modified="2023-09-04T23:13:15.253Z" agent="Mozilla/5.0 (Macintosh; Intel Mac OS X 10_15_7) AppleWebKit/537.36 (KHTML, like Gecko) Chrome/116.0.0.0 Safari/537.36" version="21.7.2" etag="33ALu8TkOB4rNZtcTu6z" type="github">
  <diagram name="Page-1" id="H59Nz2Z8JiPH6nrxkmGA">
    <mxGraphModel>
      <root>
        <mxCell id="0" />
        <mxCell id="1" parent="0" />
      </root>
    </mxGraphModel>
  </diagram>
</mxfile>
